{"accessors":[{"bufferView":2,"componentType":5126,"count":264,"max":[1.1689019203186035,19.63287925720215,1.1689019203186035],"min":[-1.1689019203186035,-15.560907363891602,-1.1689019203186035],"type":"VEC3"},{"bufferView":2,"byteOffset":3168,"componentType":5126,"count":264,"max":[1,1,1],"min":[-1,-1,-1],"type":"VEC3"},{"bufferView":1,"componentType":5126,"count":264,"max":[0.875,1],"min":[0.125,0],"type":"VEC2"},{"bufferView":0,"componentType":5125,"count":396,"type":"SCALAR"}],"asset":{"extras":{"author":"Marusan (https://sketchfab.com/Marusan)","license":"CC-BY-4.0 (http://creativecommons.org/licenses/by/4.0/)","source":"https://sketchfab.com/3d-models/homework-71ab40ca98c545889cd7b218173f4c97","title":"Homework"},"generator":"Sketchfab-10.50.0","version":"2.0"},"bufferViews":[{"buffer":0,"byteLength":1584,"name":"floatBufferViews","target":34963},{"buffer":0,"byteLength":2112,"byteOffset":1584,"byteStride":8,"name":"floatBufferViews","target":34962},{"buffer":0,"byteLength":6336,"byteOffset":3696,"byteStride":12,"name":"floatBufferViews","target":34962}],"buffers":[{"byteLength":10032,"uri":"data:application/octet-stream;base64,"}],"materials":[{"doubleSided":true,"name":"Material.001","pbrMetallicRoughness":{"baseColorFactor":[0.242276,0.13731,0.0182641,1],"metallicFactor":0,"roughnessFactor":0.5}}],"meshes":[{"name":"Object_0","primitives":[{"attributes":{"NORMAL":1,"POSITION":0,"TEXCOORD_0":2},"indices":3,"material":0,"mode":4}]}],"nodes":[{"children":[1],"matrix":[1,0,0,0,0,2.220446049250313e-16,-1,0,0,1,2.220446049250313e-16,0,0,0,0,1],"name":"Sketchfab_model"},{"children":[2],"name":"root"},{"children":[3],"matrix":[1,0,0,0,0,2.220446049250313e-16,1,0,0,-1,2.220446049250313e-16,0,0,0,0,1],"name":"GLTF_SceneRootNode"},{"children":[4],"matrix":[0.7980190515518188,0,0,0,0,0.10072803497314453,0,0,0,0,0.7575777769088745,0,0,1.399999976158142,0,1],"name":"Cube_0"},{"mesh":0,"name":"Object_4"}],"scene":0,"scenes":[{"name":"Sketchfab_Scene","nodes":[0]}]}